<svg xmlns="http://www.w3.org/2000/svg" xmlns:xlink="http://www.w3.org/1999/xlink" width="40" zoomAndPan="magnify" viewBox="0 0 30 30.000001" height="40" preserveAspectRatio="xMidYMid meet" version="1.0"><defs><clipPath id="52b7248b14"><path d="M 14 25 L 18 25 L 18 28.304688 L 14 28.304688 Z M 14 25 " clip-rule="nonzero"/></clipPath><clipPath id="e5647d661d"><path d="M 17 17 L 25.097656 17 L 25.097656 26 L 17 26 Z M 17 17 " clip-rule="nonzero"/></clipPath><clipPath id="a423afa05c"><path d="M 19 19 L 25.097656 19 L 25.097656 26 L 19 26 Z M 19 19 " clip-rule="nonzero"/></clipPath><clipPath id="16ad8bd876"><path d="M 16 27 L 18 27 L 18 28.304688 L 16 28.304688 Z M 16 27 " clip-rule="nonzero"/></clipPath><clipPath id="9c89db4eb4"><path d="M 5.5 0 L 24 0 L 24 27 L 5.5 27 Z M 5.5 0 " clip-rule="nonzero"/></clipPath></defs><path fill="#33cc95" d="M 12.929688 18.90625 C 12.929688 18.851562 12.898438 18.792969 12.878906 18.734375 L 8.738281 22.949219 L 8.851562 23.0625 Z M 12.929688 18.90625 " fill-opacity="1" fill-rule="nonzero"/><path fill="#33cc95" d="M 12.144531 18.105469 L 11.890625 18.136719 L 8.027344 22.074219 L 8.125 22.207031 Z M 12.144531 18.105469 " fill-opacity="1" fill-rule="nonzero"/><path fill="#33cc95" d="M 13.382812 20.058594 L 13.300781 19.910156 L 9.578125 23.703125 L 9.710938 23.792969 Z M 13.382812 20.058594 " fill-opacity="1" fill-rule="nonzero"/><path fill="#33cc95" d="M 10.355469 18.316406 L 10.101562 18.316406 L 7.449219 21.019531 L 7.515625 21.171875 Z M 10.355469 18.316406 " fill-opacity="1" fill-rule="nonzero"/><path fill="#33cc95" d="M 17.09375 17.660156 L 14.9375 19.859375 L 14.9375 20.085938 L 17.09375 17.886719 Z M 17.09375 17.660156 " fill-opacity="1" fill-rule="nonzero"/><path fill="#33cc95" d="M 14.15625 20.882812 L 14.023438 20.785156 L 10.558594 24.320312 C 10.605469 24.347656 10.652344 24.371094 10.703125 24.394531 Z M 14.15625 20.882812 " fill-opacity="1" fill-rule="nonzero"/><g clip-path="url(#52b7248b14)"><path fill="#33cc95" d="M 17.09375 25.703125 L 14.9375 27.902344 L 14.9375 28.128906 L 17.09375 25.925781 Z M 17.09375 25.703125 " fill-opacity="1" fill-rule="nonzero"/></g><path fill="#33cc95" d="M 17.09375 21.101562 L 17.09375 20.875 L 12.902344 25.125 L 13.09375 25.160156 Z M 17.09375 21.101562 " fill-opacity="1" fill-rule="nonzero"/><path fill="#33cc95" d="M 8.566406 18.523438 L 8.3125 18.554688 L 7.050781 19.839844 C 7.050781 19.898438 7.050781 19.964844 7.101562 20.019531 Z M 8.566406 18.523438 " fill-opacity="1" fill-rule="nonzero"/><path fill="#33cc95" d="M 17.09375 19.492188 L 17.09375 19.269531 L 11.65625 24.800781 L 11.828125 24.859375 Z M 17.09375 19.492188 " fill-opacity="1" fill-rule="nonzero"/><path fill="#33cc95" d="M 10.8125 14.628906 L 14.851562 10.519531 L 14.691406 10.453125 L 10.664062 14.550781 L 10.703125 14.550781 Z M 10.8125 14.628906 " fill-opacity="1" fill-rule="nonzero"/><path fill="#33cc95" d="M 13.832031 9.953125 C 13.792969 9.917969 13.757812 9.878906 13.726562 9.835938 L 9.71875 13.914062 L 9.84375 14.019531 Z M 13.832031 9.953125 " fill-opacity="1" fill-rule="nonzero"/><path fill="#33cc95" d="M 19.769531 11.953125 L 19.605469 11.894531 L 14.9375 16.644531 L 14.9375 16.867188 Z M 19.769531 11.953125 " fill-opacity="1" fill-rule="nonzero"/><path fill="#33cc95" d="M 14.25 2.863281 L 7.636719 9.589844 C 7.636719 9.664062 7.636719 9.734375 7.636719 9.804688 L 14.488281 2.84375 Z M 14.25 2.863281 " fill-opacity="1" fill-rule="nonzero"/><path fill="#33cc95" d="M 9.023438 13.238281 L 13.277344 8.910156 C 13.277344 8.839844 13.277344 8.769531 13.277344 8.695312 L 8.921875 13.109375 C 8.953125 13.148438 8.984375 13.199219 9.023438 13.238281 Z M 9.023438 13.238281 " fill-opacity="1" fill-rule="nonzero"/><path fill="#33cc95" d="M 14.9375 10.210938 L 14.9375 10.433594 L 17.09375 8.234375 L 17.09375 8.007812 Z M 14.9375 10.210938 " fill-opacity="1" fill-rule="nonzero"/><path fill="#33cc95" d="M 14.167969 15.820312 L 14.339844 15.871094 L 18.578125 11.554688 L 18.410156 11.503906 Z M 14.167969 15.820312 " fill-opacity="1" fill-rule="nonzero"/><path fill="#33cc95" d="M 11.773438 15.035156 L 11.9375 15.097656 L 17.09375 9.847656 L 17.09375 9.625 Z M 11.773438 15.035156 " fill-opacity="1" fill-rule="nonzero"/><path fill="#33cc95" d="M 12.953125 15.472656 L 13.125 15.523438 L 17.359375 11.214844 L 17.183594 11.160156 Z M 12.953125 15.472656 " fill-opacity="1" fill-rule="nonzero"/><path fill="#33cc95" d="M 14.9375 18.25 L 14.9375 18.476562 L 20.914062 12.398438 L 20.753906 12.332031 Z M 14.9375 18.25 " fill-opacity="1" fill-rule="nonzero"/><path fill="#33cc95" d="M 14.9375 8.601562 L 14.9375 8.824219 L 20.269531 3.402344 L 20.101562 3.34375 Z M 14.9375 8.601562 " fill-opacity="1" fill-rule="nonzero"/><path fill="#33cc95" d="M 21.132812 8.722656 L 21.398438 8.679688 L 23.746094 6.289062 L 23.664062 6.144531 Z M 21.132812 8.722656 " fill-opacity="1" fill-rule="nonzero"/><path fill="#33cc95" d="M 14.9375 6.992188 L 14.9375 7.21875 L 19.023438 3.0625 L 18.839844 3.023438 Z M 14.9375 6.992188 " fill-opacity="1" fill-rule="nonzero"/><path fill="#33cc95" d="M 18.535156 8.148438 L 18.613281 8.304688 L 22.316406 4.535156 L 22.195312 4.429688 Z M 18.535156 8.148438 " fill-opacity="1" fill-rule="nonzero"/><path fill="#33cc95" d="M 19.257812 9.039062 L 19.523438 8.992188 L 23.105469 5.34375 C 23.074219 5.304688 23.042969 5.261719 23.003906 5.222656 Z M 19.257812 9.039062 " fill-opacity="1" fill-rule="nonzero"/><path fill="#33cc95" d="M 17.839844 7.257812 L 17.960938 7.359375 L 21.367188 3.890625 L 21.222656 3.808594 Z M 17.839844 7.257812 " fill-opacity="1" fill-rule="nonzero"/><path fill="#33cc95" d="M 7.769531 7.847656 C 7.769531 7.9375 7.730469 8.035156 7.71875 8.132812 L 12.625 3.136719 L 12.320312 3.246094 Z M 7.769531 7.847656 " fill-opacity="1" fill-rule="nonzero"/><path fill="#33cc95" d="M 14.9375 2.167969 L 14.9375 2.390625 L 15.996094 1.316406 L 15.765625 1.316406 Z M 14.9375 2.167969 " fill-opacity="1" fill-rule="nonzero"/><path fill="#33cc95" d="M 8.289062 12.152344 L 8.371094 12.300781 L 17.644531 2.863281 L 17.4375 2.863281 Z M 8.289062 12.152344 " fill-opacity="1" fill-rule="nonzero"/><path fill="#33cc95" d="M 7.832031 11 C 7.847656 11.058594 7.863281 11.117188 7.882812 11.175781 L 17.101562 1.792969 L 17.101562 1.570312 Z M 7.832031 11 " fill-opacity="1" fill-rule="nonzero"/><path fill="#33cc95" d="M 19.40625 18.507812 C 19.429688 18.566406 19.445312 18.628906 19.457031 18.6875 L 23.714844 14.359375 C 23.714844 14.320312 23.648438 14.277344 23.613281 14.238281 Z M 19.40625 18.507812 " fill-opacity="1" fill-rule="nonzero"/><g clip-path="url(#e5647d661d)"><path fill="#33cc95" d="M 17.378906 25.414062 L 17.617188 25.414062 L 25.097656 17.8125 C 25.097656 17.742188 25.097656 17.671875 25.097656 17.601562 Z M 17.378906 25.414062 " fill-opacity="1" fill-rule="nonzero"/></g><g clip-path="url(#a423afa05c)"><path fill="#33cc95" d="M 19.175781 25.195312 L 19.453125 25.140625 L 24.976562 19.519531 C 24.976562 19.429688 25.015625 19.339844 25.027344 19.242188 Z M 19.175781 25.195312 " fill-opacity="1" fill-rule="nonzero"/></g><path fill="#33cc95" d="M 21.753906 24.183594 C 22.011719 24.023438 22.261719 23.84375 22.5 23.648438 L 23.59375 22.550781 C 23.777344 22.3125 23.945312 22.0625 24.109375 21.796875 Z M 21.753906 24.183594 " fill-opacity="1" fill-rule="nonzero"/><path fill="#33cc95" d="M 14.9375 26.292969 L 14.9375 26.519531 L 24.839844 16.445312 C 24.839844 16.386719 24.808594 16.328125 24.789062 16.269531 Z M 14.9375 26.292969 " fill-opacity="1" fill-rule="nonzero"/><path fill="#33cc95" d="M 18.777344 17.550781 L 18.890625 17.660156 L 22.929688 13.542969 L 22.800781 13.4375 Z M 18.777344 17.550781 " fill-opacity="1" fill-rule="nonzero"/><path fill="#33cc95" d="M 14.273438 25.359375 L 14.476562 25.359375 L 24.371094 15.316406 L 24.292969 15.167969 Z M 14.273438 25.359375 " fill-opacity="1" fill-rule="nonzero"/><path fill="#33cc95" d="M 17.789062 16.957031 L 17.941406 17.035156 L 21.980469 12.898438 L 21.835938 12.820312 Z M 17.789062 16.957031 " fill-opacity="1" fill-rule="nonzero"/><path fill="#33cc95" d="M 23.011719 8.394531 L 23.277344 8.351562 L 24.226562 7.382812 L 24.167969 7.21875 Z M 23.011719 8.394531 " fill-opacity="1" fill-rule="nonzero"/><g clip-path="url(#16ad8bd876)"><path fill="#33cc95" d="M 17.09375 27.535156 L 17.09375 27.3125 L 16.144531 28.277344 L 16.367188 28.277344 Z M 17.09375 27.535156 " fill-opacity="1" fill-rule="nonzero"/></g><g clip-path="url(#9c89db4eb4)"><path fill="#ffffff" d="M 23.199219 6.910156 L 17.703125 7.796875 C 17.519531 7.265625 17.269531 6.769531 16.957031 6.308594 C 16.640625 5.964844 16.273438 5.6875 15.855469 5.480469 L 15.855469 9.828125 C 18.84375 10.640625 20.84375 11.5 21.855469 12.402344 C 22.507812 12.984375 23.003906 13.683594 23.351562 14.492188 C 23.699219 15.300781 23.859375 16.148438 23.832031 17.027344 C 23.84375 18.09375 23.605469 19.097656 23.113281 20.039062 C 22.667969 20.898438 22.082031 21.640625 21.355469 22.265625 C 20.628906 22.890625 19.8125 23.359375 18.910156 23.664062 C 17.90625 23.964844 16.882812 24.128906 15.835938 24.144531 L 15.835938 26.988281 L 13.675781 26.988281 L 13.675781 24.144531 C 12.46875 24.066406 11.292969 23.828125 10.148438 23.429688 C 9.277344 23.105469 8.5 22.628906 7.8125 21.996094 C 7.191406 21.433594 6.683594 20.773438 6.296875 20.019531 C 5.90625 19.203125 5.640625 18.34375 5.5 17.449219 L 11.472656 16.757812 C 11.570312 17.523438 11.808594 18.238281 12.1875 18.90625 C 12.585938 19.429688 13.078125 19.824219 13.675781 20.085938 L 13.675781 14.757812 C 12.222656 14.382812 10.8125 13.894531 9.4375 13.292969 C 8.542969 12.832031 7.820312 12.175781 7.277344 11.316406 C 6.628906 10.308594 6.324219 9.199219 6.359375 7.996094 C 6.335938 7.144531 6.484375 6.328125 6.804688 5.542969 C 7.125 4.757812 7.589844 4.074219 8.199219 3.492188 C 9.425781 2.289062 11.253906 1.625 13.675781 1.492188 L 13.675781 0.03125 L 15.835938 0.03125 L 15.835938 1.515625 C 18.042969 1.660156 19.730469 2.191406 20.894531 3.113281 C 22.121094 4.089844 22.890625 5.355469 23.199219 6.910156 Z M 13.71875 5.402344 C 13.207031 5.539062 12.769531 5.800781 12.402344 6.1875 C 12.152344 6.511719 12.027344 6.878906 12.039062 7.292969 C 12.027344 7.722656 12.148438 8.109375 12.410156 8.445312 C 12.765625 8.851562 13.203125 9.125 13.71875 9.269531 Z M 15.878906 20.199219 C 16.589844 20.085938 17.203125 19.773438 17.71875 19.261719 C 18.105469 18.847656 18.296875 18.359375 18.300781 17.789062 C 18.292969 17.296875 18.128906 16.867188 17.808594 16.5 C 17.265625 15.972656 16.636719 15.601562 15.914062 15.394531 Z M 15.878906 20.199219 " fill-opacity="1" fill-rule="nonzero"/></g></svg>