<svg xmlns="http://www.w3.org/2000/svg" xmlns:xlink="http://www.w3.org/1999/xlink" width="175" zoomAndPan="magnify" viewBox="0 0 131.25 30.000001" height="40" preserveAspectRatio="xMidYMid meet" version="1.0"><defs><g/><clipPath id="2b9225517c"><path d="M 1.753906 0 L 31 0 L 31 29.03125 L 1.753906 29.03125 Z M 1.753906 0 " clip-rule="nonzero"/></clipPath></defs><path fill="#ffffff" d="M 28.296875 14.316406 C 28.296875 15.140625 28.21875 15.957031 28.058594 16.765625 C 27.898438 17.574219 27.664062 18.359375 27.351562 19.125 C 27.039062 19.886719 26.65625 20.609375 26.203125 21.292969 C 25.75 21.980469 25.234375 22.613281 24.660156 23.199219 C 24.082031 23.78125 23.453125 24.300781 22.777344 24.757812 C 22.097656 25.21875 21.382812 25.605469 20.628906 25.921875 C 19.875 26.234375 19.097656 26.472656 18.296875 26.636719 C 17.5 26.796875 16.691406 26.875 15.875 26.875 C 15.058594 26.875 14.25 26.796875 13.449219 26.636719 C 12.652344 26.472656 11.875 26.234375 11.121094 25.921875 C 10.367188 25.605469 9.652344 25.21875 8.972656 24.757812 C 8.292969 24.300781 7.667969 23.78125 7.089844 23.199219 C 6.515625 22.613281 6 21.980469 5.546875 21.292969 C 5.09375 20.609375 4.710938 19.886719 4.398438 19.125 C 4.085938 18.359375 3.851562 17.574219 3.691406 16.765625 C 3.53125 15.957031 3.453125 15.140625 3.453125 14.316406 C 3.453125 13.492188 3.53125 12.675781 3.691406 11.867188 C 3.851562 11.058594 4.085938 10.273438 4.398438 9.511719 C 4.710938 8.75 5.09375 8.023438 5.546875 7.339844 C 6 6.652344 6.515625 6.019531 7.089844 5.4375 C 7.667969 4.851562 8.292969 4.332031 8.972656 3.875 C 9.652344 3.417969 10.367188 3.027344 11.121094 2.714844 C 11.875 2.398438 12.652344 2.160156 13.449219 2 C 14.25 1.839844 15.058594 1.757812 15.875 1.757812 C 16.691406 1.757812 17.5 1.839844 18.296875 2 C 19.097656 2.160156 19.875 2.398438 20.628906 2.714844 C 21.382812 3.027344 22.097656 3.417969 22.777344 3.875 C 23.453125 4.332031 24.082031 4.851562 24.660156 5.4375 C 25.234375 6.019531 25.75 6.652344 26.203125 7.339844 C 26.65625 8.023438 27.039062 8.75 27.351562 9.511719 C 27.664062 10.273438 27.898438 11.058594 28.058594 11.867188 C 28.21875 12.675781 28.296875 13.492188 28.296875 14.316406 Z M 28.296875 14.316406 " fill-opacity="1" fill-rule="nonzero"/><g clip-path="url(#2b9225517c)"><path fill="#33cc95" d="M 26.78125 5.167969 C 26.425781 4.757812 26.046875 4.371094 25.648438 4.003906 C 25.25 3.636719 24.832031 3.292969 24.394531 2.976562 C 23.957031 2.65625 23.503906 2.363281 23.03125 2.097656 C 22.5625 1.828125 22.078125 1.589844 21.582031 1.378906 C 21.085938 1.167969 20.578125 0.984375 20.058594 0.832031 C 19.542969 0.679688 19.019531 0.554688 18.488281 0.460938 C 17.957031 0.367188 17.421875 0.304688 16.882812 0.273438 C 16.34375 0.242188 15.804688 0.238281 15.265625 0.269531 C 14.730469 0.300781 14.195312 0.359375 13.660156 0.449219 C 13.128906 0.539062 12.605469 0.660156 12.085938 0.8125 C 11.570312 0.964844 11.0625 1.144531 10.5625 1.351562 C 10.066406 1.5625 9.578125 1.796875 9.109375 2.0625 C 8.636719 2.328125 8.183594 2.617188 7.742188 2.933594 C 7.304688 3.25 6.882812 3.59375 6.484375 3.957031 C 6.082031 4.320312 5.703125 4.707031 5.347656 5.117188 C 4.988281 5.523438 4.65625 5.953125 4.34375 6.398438 C 4.023438 6.863281 3.726562 7.34375 3.457031 7.84375 C 2.441406 9.753906 1.878906 11.792969 1.777344 13.960938 C 1.765625 14.203125 1.757812 14.449219 1.757812 14.695312 C 1.757812 15.277344 1.792969 15.855469 1.859375 16.433594 C 1.929688 17.011719 2.035156 17.582031 2.171875 18.148438 C 2.308594 18.714844 2.480469 19.269531 2.683594 19.8125 C 2.886719 20.355469 3.121094 20.886719 3.390625 21.402344 C 3.65625 21.917969 3.953125 22.414062 4.28125 22.894531 C 4.605469 23.375 4.960938 23.832031 5.339844 24.265625 C 5.722656 24.703125 6.128906 25.113281 6.558594 25.5 C 6.988281 25.886719 7.441406 26.246094 7.914062 26.578125 C 8.386719 26.910156 8.878906 27.210938 9.386719 27.480469 C 9.898438 27.753906 10.421875 27.992188 10.957031 28.199219 C 11.496094 28.40625 12.046875 28.578125 12.605469 28.71875 C 13.164062 28.859375 13.726562 28.964844 14.296875 29.039062 C 14.871094 29.109375 15.441406 29.144531 16.019531 29.144531 C 16.59375 29.148438 17.167969 29.113281 17.738281 29.042969 C 18.3125 28.976562 18.875 28.871094 19.4375 28.734375 C 19.996094 28.597656 20.542969 28.425781 21.082031 28.21875 C 21.621094 28.015625 22.144531 27.777344 22.65625 27.507812 C 23.167969 27.238281 23.660156 26.941406 24.132812 26.609375 C 24.609375 26.28125 25.0625 25.925781 25.492188 25.539062 C 25.925781 25.15625 26.332031 24.746094 26.714844 24.3125 C 27.097656 23.878906 27.453125 23.421875 27.785156 22.941406 C 28.113281 22.464844 28.410156 21.96875 28.679688 21.453125 C 28.949219 20.941406 29.1875 20.410156 29.394531 19.867188 C 29.597656 19.324219 29.773438 18.769531 29.910156 18.207031 C 30.050781 17.640625 30.15625 17.070312 30.226562 16.492188 C 30.300781 15.914062 30.335938 15.335938 30.339844 14.753906 C 30.339844 14.171875 30.308594 13.59375 30.242188 13.015625 C 30.175781 12.4375 30.074219 11.863281 29.9375 11.296875 C 29.800781 10.734375 29.632812 10.179688 29.433594 9.632812 C 29.230469 9.085938 28.996094 8.558594 28.730469 8.039062 C 28.464844 7.523438 28.171875 7.027344 27.847656 6.546875 C 27.523438 6.066406 27.167969 5.605469 26.789062 5.167969 Z M 11.277344 16.6875 C 12.480469 17.546875 13.613281 18.058594 14.78125 18.25 L 14.78125 15.960938 C 11.746094 15.253906 10.203125 14.210938 10.203125 11.847656 L 10.203125 11.808594 C 10.203125 9.5625 11.824219 8 14.707031 7.789062 L 14.707031 6.703125 L 16.664062 6.703125 L 16.664062 7.847656 C 18.113281 8 19.4375 8.496094 20.636719 9.332031 L 19.09375 11.882812 C 18.320312 11.347656 17.480469 10.972656 16.570312 10.75 L 16.570312 12.960938 C 19.558594 13.664062 21.070312 14.75 21.070312 17.117188 L 21.070312 17.152344 C 21.070312 19.476562 19.300781 20.90625 16.625 21.152344 L 16.625 23.019531 L 14.667969 23.019531 L 14.667969 21.101562 C 12.808594 20.921875 11.113281 20.292969 9.582031 19.214844 Z M 11.277344 16.6875 " fill-opacity="1" fill-rule="nonzero"/></g><path fill="#33cc95" d="M 17.8125 17.390625 L 17.8125 17.351562 C 17.8125 16.835938 17.53125 16.550781 16.550781 16.265625 L 16.550781 18.359375 C 17.417969 18.265625 17.8125 17.941406 17.8125 17.390625 Z M 17.8125 17.390625 " fill-opacity="1" fill-rule="nonzero"/><path fill="#33cc95" d="M 14.796875 10.570312 C 13.875 10.648438 13.515625 11.027344 13.515625 11.523438 L 13.515625 11.5625 C 13.515625 12.054688 13.78125 12.339844 14.796875 12.628906 Z M 14.796875 10.570312 " fill-opacity="1" fill-rule="nonzero"/><g fill="#ffffff" fill-opacity="1"><g transform="translate(34.778223, 19.940966)"><g><path d="M 0 -8.21875 L 2.328125 -8.21875 L 4.1875 -2.25 L 4.265625 -2.25 L 6.125 -8.21875 L 8.453125 -8.21875 L 5.578125 0 L 2.875 0 Z M 0 -8.21875 "/></g></g></g><g fill="#ffffff" fill-opacity="1"><g transform="translate(43.233388, 19.940966)"><g><path d="M 5.515625 0.15625 C 4.929688 0.15625 4.453125 0.0390625 4.078125 -0.1875 C 3.703125 -0.414062 3.40625 -0.664062 3.1875 -0.9375 L 3.109375 -0.9375 L 2.875 0 L 1.015625 0 L 1.015625 -10.859375 L 3.1875 -10.859375 L 3.1875 -7.375 L 3.265625 -7.375 C 3.328125 -7.46875 3.421875 -7.570312 3.546875 -7.6875 C 3.679688 -7.800781 3.84375 -7.910156 4.03125 -8.015625 C 4.21875 -8.117188 4.429688 -8.203125 4.671875 -8.265625 C 4.921875 -8.335938 5.203125 -8.375 5.515625 -8.375 C 6.035156 -8.375 6.515625 -8.28125 6.953125 -8.09375 C 7.390625 -7.914062 7.765625 -7.644531 8.078125 -7.28125 C 8.390625 -6.925781 8.632812 -6.484375 8.8125 -5.953125 C 8.988281 -5.421875 9.078125 -4.804688 9.078125 -4.109375 C 9.078125 -3.410156 8.988281 -2.796875 8.8125 -2.265625 C 8.632812 -1.734375 8.390625 -1.285156 8.078125 -0.921875 C 7.765625 -0.566406 7.390625 -0.296875 6.953125 -0.109375 C 6.515625 0.0664062 6.035156 0.15625 5.515625 0.15625 Z M 5.046875 -1.78125 C 5.296875 -1.78125 5.53125 -1.820312 5.75 -1.90625 C 5.976562 -2 6.175781 -2.140625 6.34375 -2.328125 C 6.519531 -2.523438 6.65625 -2.769531 6.75 -3.0625 C 6.851562 -3.351562 6.90625 -3.703125 6.90625 -4.109375 C 6.90625 -4.515625 6.851562 -4.863281 6.75 -5.15625 C 6.65625 -5.445312 6.519531 -5.6875 6.34375 -5.875 C 6.175781 -6.070312 5.976562 -6.210938 5.75 -6.296875 C 5.53125 -6.390625 5.296875 -6.4375 5.046875 -6.4375 C 4.796875 -6.4375 4.554688 -6.390625 4.328125 -6.296875 C 4.097656 -6.210938 3.894531 -6.070312 3.71875 -5.875 C 3.550781 -5.6875 3.421875 -5.445312 3.328125 -5.15625 C 3.234375 -4.863281 3.1875 -4.515625 3.1875 -4.109375 C 3.1875 -3.703125 3.234375 -3.351562 3.328125 -3.0625 C 3.421875 -2.769531 3.550781 -2.523438 3.71875 -2.328125 C 3.894531 -2.140625 4.097656 -2 4.328125 -1.90625 C 4.554688 -1.820312 4.796875 -1.78125 5.046875 -1.78125 Z M 5.046875 -1.78125 "/></g></g></g><g fill="#ffffff" fill-opacity="1"><g transform="translate(52.852106, 19.940966)"><g/></g></g><g fill="#ffffff" fill-opacity="1"><g transform="translate(56.420337, 19.940966)"><g><path d="M 0.9375 -8.21875 L 2.796875 -8.21875 L 3.03125 -7.296875 L 3.109375 -7.296875 C 3.335938 -7.640625 3.609375 -7.90625 3.921875 -8.09375 C 4.234375 -8.28125 4.609375 -8.375 5.046875 -8.375 C 5.390625 -8.375 5.6875 -8.328125 5.9375 -8.234375 C 6.195312 -8.140625 6.414062 -8.023438 6.59375 -7.890625 C 6.78125 -7.765625 6.925781 -7.625 7.03125 -7.46875 C 7.144531 -7.3125 7.234375 -7.175781 7.296875 -7.0625 L 7.375 -7.0625 C 7.4375 -7.175781 7.523438 -7.3125 7.640625 -7.46875 C 7.765625 -7.625 7.929688 -7.765625 8.140625 -7.890625 C 8.347656 -8.023438 8.59375 -8.140625 8.875 -8.234375 C 9.15625 -8.328125 9.484375 -8.375 9.859375 -8.375 C 10.296875 -8.375 10.703125 -8.296875 11.078125 -8.140625 C 11.453125 -7.992188 11.769531 -7.78125 12.03125 -7.5 C 12.289062 -7.226562 12.492188 -6.890625 12.640625 -6.484375 C 12.796875 -6.078125 12.875 -5.625 12.875 -5.125 L 12.875 0 L 10.703125 0 L 10.703125 -4.8125 C 10.703125 -5.101562 10.664062 -5.347656 10.59375 -5.546875 C 10.519531 -5.753906 10.421875 -5.921875 10.296875 -6.046875 C 10.171875 -6.179688 10.023438 -6.28125 9.859375 -6.34375 C 9.691406 -6.40625 9.507812 -6.4375 9.3125 -6.4375 C 8.957031 -6.4375 8.644531 -6.300781 8.375 -6.03125 C 8.113281 -5.757812 7.984375 -5.351562 7.984375 -4.8125 L 7.984375 0 L 5.8125 0 L 5.8125 -4.8125 C 5.8125 -5.101562 5.773438 -5.347656 5.703125 -5.546875 C 5.628906 -5.753906 5.53125 -5.921875 5.40625 -6.046875 C 5.289062 -6.179688 5.144531 -6.28125 4.96875 -6.34375 C 4.800781 -6.40625 4.617188 -6.4375 4.421875 -6.4375 C 4.066406 -6.4375 3.757812 -6.289062 3.5 -6 C 3.238281 -5.707031 3.109375 -5.3125 3.109375 -4.8125 L 3.109375 0 L 0.9375 0 Z M 0.9375 -8.21875 "/></g></g></g><g fill="#ffffff" fill-opacity="1"><g transform="translate(70.15029, 19.940966)"><g><path d="M 4.578125 0.15625 C 3.953125 0.15625 3.390625 0.0625 2.890625 -0.125 C 2.398438 -0.320312 1.976562 -0.597656 1.625 -0.953125 C 1.28125 -1.316406 1.015625 -1.765625 0.828125 -2.296875 C 0.640625 -2.828125 0.546875 -3.429688 0.546875 -4.109375 C 0.546875 -4.796875 0.640625 -5.398438 0.828125 -5.921875 C 1.015625 -6.453125 1.28125 -6.894531 1.625 -7.25 C 1.976562 -7.613281 2.398438 -7.890625 2.890625 -8.078125 C 3.390625 -8.273438 3.953125 -8.375 4.578125 -8.375 C 5.203125 -8.375 5.757812 -8.273438 6.25 -8.078125 C 6.75 -7.890625 7.171875 -7.613281 7.515625 -7.25 C 7.867188 -6.894531 8.140625 -6.453125 8.328125 -5.921875 C 8.515625 -5.398438 8.609375 -4.796875 8.609375 -4.109375 C 8.609375 -3.429688 8.515625 -2.828125 8.328125 -2.296875 C 8.140625 -1.765625 7.867188 -1.316406 7.515625 -0.953125 C 7.171875 -0.597656 6.75 -0.320312 6.25 -0.125 C 5.757812 0.0625 5.203125 0.15625 4.578125 0.15625 Z M 4.578125 -1.78125 C 4.828125 -1.78125 5.0625 -1.820312 5.28125 -1.90625 C 5.507812 -2 5.707031 -2.140625 5.875 -2.328125 C 6.050781 -2.523438 6.1875 -2.769531 6.28125 -3.0625 C 6.382812 -3.351562 6.4375 -3.703125 6.4375 -4.109375 C 6.4375 -4.515625 6.382812 -4.863281 6.28125 -5.15625 C 6.1875 -5.445312 6.050781 -5.6875 5.875 -5.875 C 5.707031 -6.070312 5.507812 -6.210938 5.28125 -6.296875 C 5.0625 -6.390625 4.828125 -6.4375 4.578125 -6.4375 C 4.328125 -6.4375 4.085938 -6.390625 3.859375 -6.296875 C 3.628906 -6.210938 3.429688 -6.070312 3.265625 -5.875 C 3.097656 -5.6875 2.960938 -5.445312 2.859375 -5.15625 C 2.765625 -4.863281 2.71875 -4.515625 2.71875 -4.109375 C 2.71875 -3.703125 2.765625 -3.351562 2.859375 -3.0625 C 2.960938 -2.769531 3.097656 -2.523438 3.265625 -2.328125 C 3.429688 -2.140625 3.628906 -2 3.859375 -1.90625 C 4.085938 -1.820312 4.328125 -1.78125 4.578125 -1.78125 Z M 4.578125 -1.78125 "/></g></g></g><g fill="#ffffff" fill-opacity="1"><g transform="translate(79.303596, 19.940966)"><g><path d="M 0.9375 -8.21875 L 2.796875 -8.21875 L 3.03125 -7.296875 L 3.109375 -7.296875 C 3.367188 -7.640625 3.6875 -7.90625 4.0625 -8.09375 C 4.4375 -8.28125 4.84375 -8.375 5.28125 -8.375 C 5.71875 -8.375 6.125 -8.296875 6.5 -8.140625 C 6.875 -7.992188 7.191406 -7.773438 7.453125 -7.484375 C 7.710938 -7.203125 7.914062 -6.851562 8.0625 -6.4375 C 8.21875 -6.03125 8.296875 -5.566406 8.296875 -5.046875 L 8.296875 0 L 6.125 0 L 6.125 -4.734375 C 6.125 -5.273438 5.992188 -5.691406 5.734375 -5.984375 C 5.484375 -6.285156 5.125 -6.4375 4.65625 -6.4375 C 4.1875 -6.4375 3.8125 -6.28125 3.53125 -5.96875 C 3.25 -5.65625 3.109375 -5.242188 3.109375 -4.734375 L 3.109375 0 L 0.9375 0 Z M 0.9375 -8.21875 "/></g></g></g><g fill="#ffffff" fill-opacity="1"><g transform="translate(88.456901, 19.940966)"><g><path d="M 4.578125 0.15625 C 3.953125 0.15625 3.390625 0.0625 2.890625 -0.125 C 2.398438 -0.320312 1.976562 -0.597656 1.625 -0.953125 C 1.28125 -1.316406 1.015625 -1.765625 0.828125 -2.296875 C 0.640625 -2.828125 0.546875 -3.429688 0.546875 -4.109375 C 0.546875 -4.796875 0.640625 -5.398438 0.828125 -5.921875 C 1.015625 -6.453125 1.28125 -6.894531 1.625 -7.25 C 1.976562 -7.613281 2.398438 -7.890625 2.890625 -8.078125 C 3.390625 -8.273438 3.953125 -8.375 4.578125 -8.375 C 5.179688 -8.375 5.722656 -8.269531 6.203125 -8.0625 C 6.691406 -7.863281 7.109375 -7.582031 7.453125 -7.21875 C 7.796875 -6.851562 8.0625 -6.421875 8.25 -5.921875 C 8.4375 -5.421875 8.53125 -4.867188 8.53125 -4.265625 C 8.53125 -4.148438 8.523438 -4.039062 8.515625 -3.9375 C 8.503906 -3.832031 8.492188 -3.738281 8.484375 -3.65625 C 8.472656 -3.5625 8.460938 -3.476562 8.453125 -3.40625 L 2.796875 -3.40625 C 2.878906 -2.945312 3.054688 -2.5625 3.328125 -2.25 C 3.609375 -1.9375 4.023438 -1.78125 4.578125 -1.78125 C 5.003906 -1.78125 5.316406 -1.847656 5.515625 -1.984375 C 5.710938 -2.128906 5.890625 -2.320312 6.046875 -2.5625 L 8.375 -2.5625 C 8.28125 -2.207031 8.140625 -1.867188 7.953125 -1.546875 C 7.765625 -1.222656 7.515625 -0.929688 7.203125 -0.671875 C 6.898438 -0.421875 6.53125 -0.21875 6.09375 -0.0625 C 5.664062 0.0820312 5.160156 0.15625 4.578125 0.15625 Z M 6.28125 -5.046875 C 6.238281 -5.222656 6.171875 -5.390625 6.078125 -5.546875 C 5.992188 -5.710938 5.878906 -5.863281 5.734375 -6 C 5.597656 -6.132812 5.429688 -6.238281 5.234375 -6.3125 C 5.046875 -6.394531 4.828125 -6.4375 4.578125 -6.4375 C 4.066406 -6.4375 3.671875 -6.300781 3.390625 -6.03125 C 3.109375 -5.757812 2.910156 -5.429688 2.796875 -5.046875 Z M 6.28125 -5.046875 "/></g></g></g><g fill="#ffffff" fill-opacity="1"><g transform="translate(97.532627, 19.940966)"><g><path d="M 3.28125 0 L -0.078125 -8.21875 L 2.328125 -8.21875 L 4.34375 -2.875 L 4.40625 -2.875 L 6.359375 -8.21875 L 8.765625 -8.21875 L 4.265625 3.109375 L 2.015625 3.109375 Z M 3.28125 0 "/></g></g></g></svg>